<svg xmlns="http://www.w3.org/2000/svg" viewBox="0 0 64 64" color="#1f2328">
  <style>:root{color:#1f2328}@media(prefers-color-scheme:dark){:root{color:#f0f6fc}}</style>
  <g transform="translate(-7.83516 -5.59812) scale(1.25589)">
    <g transform="scale(0.095096582)" fill="currentColor">
        <g fill="none" stroke="currentColor" stroke-width="19" stroke-linecap="round" stroke-linejoin="round">
          <path d="M302 177c-7-23-24-40-44-44m108 44c7-23 24-40 43-44M260 253c-6-43 28-76 74-76s80 33 73 76"/>
          <path d="M226 290c-36-5-47-17-63-44m38 107h-32c-11 0-22 15-35 20m75 45c-9 3-19 9-22 18l-15 44M443 290c36-5 47-17 61-44m-33 107h30c11 0 21 15 32 20m-75 45c9 3 17 9 21 18l19 44"/>
        </g>
        <path d="M297 506c-56-3-101-75-101-145 0-76 62-131 138-131s139 55 139 131c0 70-46 132-98 145-9 2-17-3-11-8 59-21 91-77 91-137 0-64-54-111-121-111s-119 47-119 111c0 60 32 116 85 135 10 4 8 11-3 10Z"/>
        <path d="M322 263c-55 4-95 49-95 99 0 58 39 112 94 125 4 1 6-1 6-5V267c0-3-1-4-5-4Zm24 0c55 4 97 49 97 99 0 58-39 112-95 125-5 1-7-1-7-5V267c0-3 1-4 5-4Z"/>
      </g>
  </g>
</svg>
